<svg id="Ebene_1" data-name="Ebene 1" xmlns="http://www.w3.org/2000/svg" viewBox="0 0 420.07 162.69"><defs><style>.cls-1{fill:#5fa4da;}.cls-2{fill:#515050;}.cls-3{fill:#6fafe1;}</style></defs><path class="cls-1" d="M201.11,289.13c-2.3,0-3.93.81-5.73,3.1v16a7.38,7.38,0,0,0,5.4,2.12c3.44,0,6.22-2.78,6.22-11.13C207.16,292.07,205,289.13,201.11,289.13Z" transform="translate(-87.6 -216.29)"/><path class="cls-1" d="M232.37,233.64c-22.43-22.92-104.59-22.92-127,0s-24.88,109.83,0,130.12c24.38,20.3,102.13,20.3,127,0C257.41,343.3,254.79,256.55,232.37,233.64Zm-66.29,87.89h-17l-2.95-15.22c-.65-3.93-1.31-8-2-12.77h-.33c-.66,4.75-1.15,8.84-1.8,12.77l-3,15.06H122.21L112.07,278h14.4l3.27,18.16c.66,4.26,1,8.68,1.64,13.26h.33a112.33,112.33,0,0,1,2.45-13.26L138.09,278h12.44l4.09,18.16c1,4.26,1.64,8.68,2.62,13.26h.33c.65-4.58,1-8.84,1.63-13.26L162.48,278H175.9Zm38.3,1a13.41,13.41,0,0,1-9.49-4.25l.49,6.55v11.94H180.81V278.16h11.95l1,3.93h.33A17.54,17.54,0,0,1,205.69,277c10,0,16.53,8.68,16.53,22.1C222.06,314,213.38,322.51,204.38,322.51Z" transform="translate(-87.6 -216.29)"/><path class="cls-2" d="M275.25,255.74h19.81v19.15l-1,10.14c3.93-3.6,9.5-7.53,17.35-7.53,12.77,0,18,9.5,18,24.06V337.9H309.62V304c0-7.53-1.8-9.49-5.73-9.49-3.76,0-5.72,1.63-8.83,4.42v38.62H275.25Z" transform="translate(-87.6 -216.29)"/><path class="cls-2" d="M337.45,321c0-12.27,9.16-19.15,31.42-21.44-.49-4.26-2.94-6.06-8-6.06-4.09,0-8.51,1.64-14.56,4.91l-6.88-13.25c8-4.91,16.37-7.86,25.37-7.86,15.06,0,24.06,8.18,24.06,27.5v32.73H372.47l-1.31-5.73h-.49c-4.58,4.26-9.65,7-15.87,7C343.83,339.21,337.45,330.7,337.45,321Zm31.42-1.47v-8c-9.49,1.47-12.44,4.42-12.44,7.86,0,2.78,1.8,4.25,5.24,4.25C365,323.66,366.75,322,368.87,319.57Z" transform="translate(-87.6 -216.29)"/><path class="cls-2" d="M393.59,278.81h19.8l6.22,25.7c1.31,5.89,2.79,11.95,4.09,18.33h.5c1.31-6.38,2.78-12.44,4.09-18.33l6.22-25.7h19l-18.16,58.93H412.41Z" transform="translate(-87.6 -216.29)"/><path class="cls-2" d="M454.8,308.28c0-19.15,13.59-30.94,27.66-30.94,17,0,25.21,12.77,25.21,28.48a44.3,44.3,0,0,1-.82,8.51H474c1.8,7,6.88,9.49,13.42,9.49a22.34,22.34,0,0,0,11.79-3.6l6.55,11.95a38.88,38.88,0,0,1-20.95,6.88C467.73,339.21,454.8,327.92,454.8,308.28Zm36-7c0-4.42-1.8-8.51-7.85-8.51-4.42,0-8,2.61-9.17,8.51Z" transform="translate(-87.6 -216.29)"/><path class="cls-3" d="M180.81,278.16h11.95l1,3.93h.33A17.54,17.54,0,0,1,205.69,277a14.71,14.71,0,0,1,2.78.33c7.69-18.49,9.82-37.65,5.73-54.34-33.06-11.62-90.51-8.18-108.84,10.64-20.3,20.79-23.9,92.48-6.55,121.94,23.4-.49,48.28-9.66,70.71-27.5a134.18,134.18,0,0,0,11.29-10.15Zm-14.73,43.37h-17L146,306.47c-.66-3.92-1.31-8-2-12.76h-.32c-.66,4.74-1.15,8.84-1.81,12.76l-2.94,15.06h-16.7l-10.14-43.37h14.4l3.27,18.17c.66,4.25,1,8.67,1.64,13.25h.33a111.78,111.78,0,0,1,2.45-13.25l3.93-18.17h12.44l4.09,18.17c1,4.25,1.64,8.67,2.62,13.25h.33c.65-4.58,1-8.83,1.63-13.25l3.28-18.17H175.9Z" transform="translate(-87.6 -216.29)"/><path class="cls-3" d="M195.38,292.4v8.35c2.62-3.77,4.91-7.53,7.2-11.3a3.68,3.68,0,0,0-1.31-.16C199,289.29,197.18,290.11,195.38,292.4Z" transform="translate(-87.6 -216.29)"/></svg>