<?xml version="1.0" encoding="utf-8"?>
<!-- Generator: Adobe Illustrator 23.0.6, SVG Export Plug-In . SVG Version: 6.00 Build 0)  -->
<svg version="1.1" id="Ebene_1" xmlns="http://www.w3.org/2000/svg" xmlns:xlink="http://www.w3.org/1999/xlink" x="0px" y="0px"
	 width="258.9px" height="102.5px" viewBox="0 0 258.9 102.5" style="enable-background:new 0 0 258.9 102.5;" xml:space="preserve"
	>
<style type="text/css">
	.st0{fill:#5EA4DA;}
	.st1{fill:#504F4F;}
	.st2{fill:#6EAFE0;}
</style>
<g>
	<path class="st0" d="M70.3,46.2c-1.4,0-2.4,0.5-3.5,1.9v9.8c1,1,2.2,1.3,3.3,1.3c2.1,0,3.8-1.7,3.8-6.8C74,48,72.7,46.2,70.3,46.2z
		"/>
	<path class="st0" d="M89.5,12.3c-13.7-14-63.9-14-77.6,0c-13.7,14-15.2,67.1,0,79.5c14.9,12.4,62.4,12.4,77.6,0
		C104.7,79.3,103.1,26.3,89.5,12.3z M48.9,66H38.6l-1.9-9.2c-0.4-2.4-0.8-4.9-1.2-7.8h-0.2c-0.4,2.9-0.7,5.4-1.1,7.8L32.3,66H22.1
		l-6.2-26.5h8.8l2,11.1c0.4,2.6,0.6,5.3,1,8.1H28c0.4-2.8,0.8-5.5,1.5-8.1l2.4-11.1h7.6l2.5,11.1c0.6,2.6,1,5.3,1.6,8.1h0.2
		c0.4-2.8,0.6-5.4,1-8.1l2-11.1h8.2L48.9,66z M72.3,66.6c-2.2,0-4.2-1-5.8-2.6l0.3,4v7.3h-8.9V39.5h7.3l0.6,2.4H66
		c1.9-1.8,4.5-3.1,7.1-3.1c6.1,0,10.1,5.3,10.1,13.5C83.1,61.4,77.8,66.6,72.3,66.6z"/>
</g>
<g>
	<path class="st1" d="M115.6,25.8h12.1v11.7l-0.6,6.2c2.4-2.2,5.8-4.6,10.6-4.6c7.8,0,11,5.8,11,14.7v22.2h-12.1V55.3
		c0-4.6-1.1-5.8-3.5-5.8c-2.3,0-3.5,1-5.4,2.7v23.6h-12.1V25.8z"/>
	<path class="st1" d="M153.6,65.7c0-7.5,5.6-11.7,19.2-13.1c-0.3-2.6-1.8-3.7-4.9-3.7c-2.5,0-5.2,1-8.9,3l-4.2-8.1
		c4.9-3,10-4.8,15.5-4.8c9.2,0,14.7,5,14.7,16.8v20H175l-0.8-3.5h-0.3c-2.8,2.6-5.9,4.3-9.7,4.3C157.5,76.8,153.6,71.6,153.6,65.7z
		 M172.8,64.8v-4.9c-5.8,0.9-7.6,2.7-7.6,4.8c0,1.7,1.1,2.6,3.2,2.6C170.4,67.3,171.5,66.3,172.8,64.8z"/>
	<path class="st1" d="M187.9,39.9H200l3.8,15.7c0.8,3.6,1.7,7.3,2.5,11.2h0.3c0.8-3.9,1.7-7.6,2.5-11.2l3.8-15.7h11.6l-11.1,36h-14
		L187.9,39.9z"/>
	<path class="st1" d="M225.3,57.9c0-11.7,8.3-18.9,16.9-18.9c10.4,0,15.4,7.8,15.4,17.4c0,2.2-0.3,4.3-0.5,5.2H237
		c1.1,4.3,4.2,5.8,8.2,5.8c2.4,0,4.7-0.7,7.2-2.2l4,7.3c-3.8,2.7-8.9,4.2-12.8,4.2C233.2,76.8,225.3,69.9,225.3,57.9z M247.3,53.6
		c0-2.7-1.1-5.2-4.8-5.2c-2.7,0-4.9,1.6-5.6,5.2H247.3z"/>
</g>
<g>
	<path class="st2" d="M57.9,39.5h7.3l0.6,2.4H66c1.9-1.8,4.5-3.1,7.1-3.1c0.6,0,1.2,0.1,1.7,0.2c4.7-11.3,6-23,3.5-33.2
		c-20.2-7.1-55.3-5-66.4,6.5c-12.4,12.7-14.6,56.5-4,74.5c14.3-0.3,29.5-5.9,43.2-16.8c2.5-2,4.7-4,6.9-6.2V39.5z M49,66H38.6
		l-1.9-9.2c-0.4-2.4-0.8-4.9-1.2-7.8h-0.2c-0.4,2.9-0.7,5.4-1.1,7.8L32.3,66H22.2l-6.2-26.5h8.8l2,11.1c0.4,2.6,0.6,5.3,1,8.1H28
		c0.4-2.8,0.8-5.5,1.5-8.1l2.4-11.1h7.6l2.5,11.1c0.6,2.6,1,5.3,1.6,8.1h0.2c0.4-2.8,0.6-5.4,1-8.1l2-11.1h8.2L49,66z"/>
	<path class="st2" d="M66.8,48.2v5.1c1.6-2.3,3-4.6,4.4-6.9c-0.3-0.1-0.5-0.1-0.8-0.1C69,46.3,68,46.8,66.8,48.2z"/>
</g>
</svg>
